<svg id="Layer_1" data-name="Layer 1" xmlns="http://www.w3.org/2000/svg" viewBox="0 0 283.97 106.86"><defs><style>.cls-1{fill:#39ffbd;}.cls-2{fill:#08084c;}</style></defs><path class="cls-1" d="M632.39,459.16h15.39L632.39,475Zm284,66.55a8,8,0,1,0-8,8,8,8,0,0,0,8-8" transform="translate(-632.39 -459.16)"/><path class="cls-2" d="M722.55,474.58v12.33h31.11v15.41H722.55v12.2h31.11v15.42H701.87V459.16h51.79v15.42Zm88.58,31.32a24.16,24.16,0,0,0,5.76-4.49,25.5,25.5,0,0,0,0-34.39,25.82,25.82,0,0,0-18.8-7.85H761V529.8h20.68V509.15H790l10.81,20.65h22.83Zm-6.36-21.69c0,1.89-.7,6.26-7.13,6.26H781.69V477.93l15.95,0c6.43,0,7.13,4.37,7.13,6.25m94.36,10.34a35.39,35.39,0,1,0-35.39,35.39,35.39,35.39,0,0,0,35.39-35.39m-20.58,0a14.81,14.81,0,1,1-14.81-14.81,14.81,14.81,0,0,1,14.81,14.81M694.6,459.16H654.93l-17.65,18.16h28.5l-33.36,34.32V529.8H694.6V511.64H661.24l33.36-34.32ZM632.42,565.61H637v-8.68c0-.9-.05-1.94-.14-3.11s-.19-2.28-.31-3.35c-.09-.76-.15-1.28-.17-1.56h.14l2.29,4.93,6.28,11.77h4.86V542.94h-4.51v8.61q0,2.22.41,6.25c.1.83.15,1.44.18,1.84h-.14l-2.26-4.93-6.28-11.77h-4.9Zm37.5-7.22H659.29a4.48,4.48,0,0,0,1.69,3,5.14,5.14,0,0,0,3.11,1,7.56,7.56,0,0,0,3.81-1.15l1.57,2.89a10.49,10.49,0,0,1-2.87,1.4,10.16,10.16,0,0,1-3.14.51,9,9,0,0,1-4.39-1.08,7.7,7.7,0,0,1-3.09-3.13,10.63,10.63,0,0,1,0-9.54,8.17,8.17,0,0,1,3-3.16,7.44,7.44,0,0,1,3.92-1.11,6.56,6.56,0,0,1,5.38,2.27,10.71,10.71,0,0,1,1.67,8.11m-3.86-3.16a4.07,4.07,0,0,0-.76-2.62,2.8,2.8,0,0,0-2.33-1,3.32,3.32,0,0,0-2.27.89,4.7,4.7,0,0,0-1.34,2.69Zm10.21,9.08a7.51,7.51,0,0,1-1.39-4.81v-7.33h-2.39v-3.54l2.64-.21.55-4.58h3.92v4.58h4.2v3.75h-4.2v7.29c0,1.88.77,2.82,2.29,2.82a5.25,5.25,0,0,0,1.71-.35l.76,3.47a11.63,11.63,0,0,1-3.72.63,5.31,5.31,0,0,1-4.37-1.72m10.35-15.89h4.72l1.8,8.27c0,.11.2,1.18.52,3.19.05.42.14,1,.28,1.87h.14q.58-3.36,1-5.06l2-8.27h4.16l2.05,8.27c.37,1.57.68,3,.94,4.37l.13.69h.14l.42-2.46c0-.28.1-.64.16-1.08s.14-1,.26-1.52l1.77-8.27h4.41l-4.2,17.19h-5.56l-1.73-7.26c-.44-2.29-.76-4-.94-5H699c-.37,2.2-.68,3.88-.94,5l-1.63,7.22H691ZM718.5,565a8,8,0,0,1-3-3.13,10.61,10.61,0,0,1,0-9.61,8,8,0,0,1,3-3.13,8.41,8.41,0,0,1,8.21,0,7.94,7.94,0,0,1,3.06,3.15,10.65,10.65,0,0,1,0,9.59,8,8,0,0,1-3.06,3.13,8.34,8.34,0,0,1-8.21,0m6.65-4.15a6.8,6.8,0,0,0,.9-3.77,6.91,6.91,0,0,0-.9-3.78,3,3,0,0,0-5.09,0,7,7,0,0,0-.88,3.78,6.9,6.9,0,0,0,.88,3.77,3,3,0,0,0,5.09,0m10.28-12.38h3.85l.35,3h.14a7,7,0,0,1,2.2-2.56,4.67,4.67,0,0,1,2.66-.88,5.08,5.08,0,0,1,2,.34l-.8,4.1-.62-.16a5.35,5.35,0,0,0-1.18-.12,3.53,3.53,0,0,0-2.16.8,5.86,5.86,0,0,0-1.73,2.5v10.14h-4.72Zm14.4-7.22h4.62v14.41h.14l5.73-7.19h5.17l-6,7.05L766,565.61h-5.14l-4-7-2.36,2.68v4.27h-4.62Zm21.09,24.16a10.33,10.33,0,0,1-3.1-1.73l2.15-3a10,10,0,0,0,2.31,1.39,5.82,5.82,0,0,0,2.24.45,3,3,0,0,0,1.77-.43,1.45,1.45,0,0,0,.59-1.23,1.26,1.26,0,0,0-.47-1,4.93,4.93,0,0,0-1.34-.79l-1.73-.71a10.83,10.83,0,0,1-3.36-2,3.94,3.94,0,0,1-1.3-3.07,4.78,4.78,0,0,1,1.77-3.84,7.12,7.12,0,0,1,4.69-1.47,9.46,9.46,0,0,1,5.94,2.15L779,553a6.53,6.53,0,0,0-3.68-1.46,2.63,2.63,0,0,0-1.61.41,1.34,1.34,0,0,0-.54,1.12,1.29,1.29,0,0,0,.69,1.12,7.91,7.91,0,0,0,1.6.75l1.18.42a10.55,10.55,0,0,1,3.45,1.92,4.13,4.13,0,0,1,1.27,3.25,4.89,4.89,0,0,1-.82,2.79,5.55,5.55,0,0,1-2.37,2,8.92,8.92,0,0,1-3.75.73,10,10,0,0,1-3.46-.67" transform="translate(-632.39 -459.16)"/></svg>